<mxfile host="app.diagrams.net" modified="2021-04-06T08:31:11.510Z" agent="5.0 (Windows NT 10.0; Win64; x64) AppleWebKit/537.36 (KHTML, like Gecko) Chrome/89.0.4389.114 Safari/537.36" etag="fJb77ppAFk-3LoJ26EZy" version="14.5.7" type="github">
  <diagram name="Page-1" id="b520641d-4fe3-3701-9064-5fc419738815">
    <mxGraphModel dx="4560" dy="2767" grid="1" gridSize="10" guides="1" tooltips="1" connect="1" arrows="1" fold="1" page="1" pageScale="1" pageWidth="1100" pageHeight="850" background="#ffffff" math="0" shadow="0">
      <root>
        <mxCell id="0" />
        <mxCell id="1" parent="0" />
        <mxCell id="zV0pQsdMM4_DKPgCTjvE-33" style="edgeStyle=orthogonalEdgeStyle;rounded=0;orthogonalLoop=1;jettySize=auto;html=1;entryX=0.5;entryY=0;entryDx=0;entryDy=0;fontSize=20;strokeColor=#CC0000;strokeWidth=6;" edge="1" parent="1" source="zV0pQsdMM4_DKPgCTjvE-22" target="zV0pQsdMM4_DKPgCTjvE-29">
          <mxGeometry relative="1" as="geometry" />
        </mxCell>
        <mxCell id="zV0pQsdMM4_DKPgCTjvE-22" value="App" style="rounded=0;whiteSpace=wrap;html=1;fontSize=20;fillColor=#dae8fc;strokeColor=#6c8ebf;" vertex="1" parent="1">
          <mxGeometry x="-350" y="-10" width="590" height="60" as="geometry" />
        </mxCell>
        <mxCell id="zV0pQsdMM4_DKPgCTjvE-36" style="edgeStyle=orthogonalEdgeStyle;rounded=0;orthogonalLoop=1;jettySize=auto;html=1;fontSize=20;strokeColor=#CC0000;strokeWidth=6;" edge="1" parent="1" source="zV0pQsdMM4_DKPgCTjvE-23" target="zV0pQsdMM4_DKPgCTjvE-35">
          <mxGeometry relative="1" as="geometry" />
        </mxCell>
        <mxCell id="zV0pQsdMM4_DKPgCTjvE-38" style="edgeStyle=orthogonalEdgeStyle;rounded=0;orthogonalLoop=1;jettySize=auto;html=1;entryX=0.5;entryY=0;entryDx=0;entryDy=0;fontSize=20;strokeColor=#CC0000;strokeWidth=6;" edge="1" parent="1" source="zV0pQsdMM4_DKPgCTjvE-23" target="zV0pQsdMM4_DKPgCTjvE-34">
          <mxGeometry relative="1" as="geometry" />
        </mxCell>
        <mxCell id="zV0pQsdMM4_DKPgCTjvE-76" style="edgeStyle=orthogonalEdgeStyle;rounded=0;orthogonalLoop=1;jettySize=auto;html=1;entryX=0;entryY=0.75;entryDx=0;entryDy=0;fontSize=20;strokeWidth=5;strokeColor=#66FFFF;" edge="1" parent="1" source="zV0pQsdMM4_DKPgCTjvE-23" target="zV0pQsdMM4_DKPgCTjvE-75">
          <mxGeometry relative="1" as="geometry" />
        </mxCell>
        <mxCell id="zV0pQsdMM4_DKPgCTjvE-89" style="edgeStyle=orthogonalEdgeStyle;rounded=0;orthogonalLoop=1;jettySize=auto;html=1;entryX=0;entryY=0.5;entryDx=0;entryDy=0;fontSize=20;fillColor=#FF6666;strokeWidth=6;strokeColor=#CC0000;" edge="1" parent="1" source="zV0pQsdMM4_DKPgCTjvE-23" target="zV0pQsdMM4_DKPgCTjvE-24">
          <mxGeometry relative="1" as="geometry" />
        </mxCell>
        <mxCell id="zV0pQsdMM4_DKPgCTjvE-94" style="edgeStyle=orthogonalEdgeStyle;rounded=0;orthogonalLoop=1;jettySize=auto;html=1;entryX=0.197;entryY=0.005;entryDx=0;entryDy=0;entryPerimeter=0;strokeWidth=7;fillColor=#FF6666;fontSize=20;strokeColor=#33FF33;" edge="1" parent="1" source="zV0pQsdMM4_DKPgCTjvE-23" target="zV0pQsdMM4_DKPgCTjvE-34">
          <mxGeometry relative="1" as="geometry" />
        </mxCell>
        <mxCell id="zV0pQsdMM4_DKPgCTjvE-98" style="edgeStyle=orthogonalEdgeStyle;rounded=0;orthogonalLoop=1;jettySize=auto;html=1;exitX=0.5;exitY=1;exitDx=0;exitDy=0;entryX=0.779;entryY=0.025;entryDx=0;entryDy=0;entryPerimeter=0;strokeWidth=6;fillColor=#FF6666;fontSize=20;strokeColor=#FF33FF;" edge="1" parent="1" source="zV0pQsdMM4_DKPgCTjvE-23" target="zV0pQsdMM4_DKPgCTjvE-34">
          <mxGeometry relative="1" as="geometry" />
        </mxCell>
        <mxCell id="zV0pQsdMM4_DKPgCTjvE-23" value="SceneSpot" style="rounded=0;whiteSpace=wrap;html=1;fontSize=20;fillColor=#dae8fc;strokeColor=#6c8ebf;" vertex="1" parent="1">
          <mxGeometry x="-350" y="270" width="590" height="60" as="geometry" />
        </mxCell>
        <mxCell id="zV0pQsdMM4_DKPgCTjvE-100" style="edgeStyle=orthogonalEdgeStyle;rounded=0;orthogonalLoop=1;jettySize=auto;html=1;entryX=0.5;entryY=0;entryDx=0;entryDy=0;strokeWidth=6;fillColor=#FF6666;fontSize=20;strokeColor=#FF33FF;" edge="1" parent="1" source="zV0pQsdMM4_DKPgCTjvE-24" target="zV0pQsdMM4_DKPgCTjvE-41">
          <mxGeometry relative="1" as="geometry" />
        </mxCell>
        <mxCell id="zV0pQsdMM4_DKPgCTjvE-24" value="Moredata" style="rounded=0;whiteSpace=wrap;html=1;fontSize=20;fillColor=#dae8fc;strokeColor=#6c8ebf;" vertex="1" parent="1">
          <mxGeometry x="420" y="518" width="220" height="60" as="geometry" />
        </mxCell>
        <mxCell id="zV0pQsdMM4_DKPgCTjvE-88" style="edgeStyle=orthogonalEdgeStyle;rounded=0;orthogonalLoop=1;jettySize=auto;html=1;entryX=0.5;entryY=0;entryDx=0;entryDy=0;fontSize=20;fillColor=#FF6666;strokeWidth=6;strokeColor=#CC0000;" edge="1" parent="1" source="zV0pQsdMM4_DKPgCTjvE-26" target="zV0pQsdMM4_DKPgCTjvE-28">
          <mxGeometry relative="1" as="geometry" />
        </mxCell>
        <mxCell id="zV0pQsdMM4_DKPgCTjvE-26" value="Spots" style="rounded=0;whiteSpace=wrap;html=1;fontSize=20;fillColor=#dae8fc;strokeColor=#6c8ebf;" vertex="1" parent="1">
          <mxGeometry x="-168.75" y="640" width="230" height="60" as="geometry" />
        </mxCell>
        <mxCell id="zV0pQsdMM4_DKPgCTjvE-28" value="Spot" style="rounded=0;whiteSpace=wrap;html=1;fontSize=20;fillColor=#dae8fc;strokeColor=#6c8ebf;" vertex="1" parent="1">
          <mxGeometry x="-170" y="880" width="230" height="60" as="geometry" />
        </mxCell>
        <mxCell id="zV0pQsdMM4_DKPgCTjvE-31" style="edgeStyle=orthogonalEdgeStyle;rounded=0;orthogonalLoop=1;jettySize=auto;html=1;exitX=0.5;exitY=1;exitDx=0;exitDy=0;fontSize=20;strokeColor=#CC0000;strokeWidth=6;" edge="1" parent="1" source="zV0pQsdMM4_DKPgCTjvE-29" target="zV0pQsdMM4_DKPgCTjvE-23">
          <mxGeometry relative="1" as="geometry" />
        </mxCell>
        <mxCell id="zV0pQsdMM4_DKPgCTjvE-29" value="Location to/Scenespot" style="shape=hexagon;perimeter=hexagonPerimeter2;whiteSpace=wrap;html=1;fixedSize=1;fontSize=20;" vertex="1" parent="1">
          <mxGeometry x="-165" y="130" width="220" height="80" as="geometry" />
        </mxCell>
        <mxCell id="zV0pQsdMM4_DKPgCTjvE-39" style="edgeStyle=orthogonalEdgeStyle;rounded=0;orthogonalLoop=1;jettySize=auto;html=1;exitX=0.5;exitY=1;exitDx=0;exitDy=0;entryX=0.5;entryY=0;entryDx=0;entryDy=0;fontSize=20;fillColor=#FF6666;strokeWidth=6;strokeColor=#CC0000;" edge="1" parent="1" source="zV0pQsdMM4_DKPgCTjvE-34" target="zV0pQsdMM4_DKPgCTjvE-26">
          <mxGeometry relative="1" as="geometry" />
        </mxCell>
        <mxCell id="zV0pQsdMM4_DKPgCTjvE-78" style="edgeStyle=orthogonalEdgeStyle;rounded=0;orthogonalLoop=1;jettySize=auto;html=1;entryX=0;entryY=0.5;entryDx=0;entryDy=0;fontSize=20;strokeColor=#66FFFF;strokeWidth=7;" edge="1" parent="1" source="zV0pQsdMM4_DKPgCTjvE-34" target="zV0pQsdMM4_DKPgCTjvE-66">
          <mxGeometry relative="1" as="geometry">
            <Array as="points">
              <mxPoint x="103" y="520" />
              <mxPoint x="103" y="800" />
              <mxPoint x="150" y="800" />
            </Array>
          </mxGeometry>
        </mxCell>
        <mxCell id="zV0pQsdMM4_DKPgCTjvE-34" value="Fetch Api" style="shape=hexagon;perimeter=hexagonPerimeter2;whiteSpace=wrap;html=1;fixedSize=1;fontSize=20;" vertex="1" parent="1">
          <mxGeometry x="-165" y="480" width="220" height="80" as="geometry" />
        </mxCell>
        <mxCell id="zV0pQsdMM4_DKPgCTjvE-37" style="edgeStyle=orthogonalEdgeStyle;rounded=0;orthogonalLoop=1;jettySize=auto;html=1;exitX=0.5;exitY=1;exitDx=0;exitDy=0;entryX=0.5;entryY=0;entryDx=0;entryDy=0;fontSize=20;fillColor=#FF6666;strokeWidth=6;strokeColor=#CC0000;" edge="1" parent="1" source="zV0pQsdMM4_DKPgCTjvE-35" target="zV0pQsdMM4_DKPgCTjvE-25">
          <mxGeometry relative="1" as="geometry" />
        </mxCell>
        <mxCell id="zV0pQsdMM4_DKPgCTjvE-35" value="Fetch local data" style="shape=hexagon;perimeter=hexagonPerimeter2;whiteSpace=wrap;html=1;fixedSize=1;fontSize=20;" vertex="1" parent="1">
          <mxGeometry x="-650" y="410" width="220" height="80" as="geometry" />
        </mxCell>
        <mxCell id="zV0pQsdMM4_DKPgCTjvE-97" style="edgeStyle=orthogonalEdgeStyle;rounded=0;orthogonalLoop=1;jettySize=auto;html=1;entryX=0.75;entryY=0;entryDx=0;entryDy=0;strokeWidth=6;fillColor=#FF6666;fontSize=20;strokeColor=#FF33FF;" edge="1" parent="1" source="zV0pQsdMM4_DKPgCTjvE-41" target="zV0pQsdMM4_DKPgCTjvE-23">
          <mxGeometry relative="1" as="geometry">
            <Array as="points">
              <mxPoint x="750" y="950" />
              <mxPoint x="750" y="180" />
              <mxPoint x="93" y="180" />
            </Array>
          </mxGeometry>
        </mxCell>
        <mxCell id="zV0pQsdMM4_DKPgCTjvE-41" value="&amp;nbsp;scoll to element Inview" style="shape=hexagon;perimeter=hexagonPerimeter2;whiteSpace=wrap;html=1;fixedSize=1;fontSize=20;" vertex="1" parent="1">
          <mxGeometry x="450" y="800" width="220" height="80" as="geometry" />
        </mxCell>
        <mxCell id="zV0pQsdMM4_DKPgCTjvE-101" style="edgeStyle=orthogonalEdgeStyle;rounded=0;orthogonalLoop=1;jettySize=auto;html=1;entryX=0.143;entryY=1.027;entryDx=0;entryDy=0;entryPerimeter=0;strokeWidth=6;fillColor=#FF6666;fontSize=20;strokeColor=#33FF33;" edge="1" parent="1" source="zV0pQsdMM4_DKPgCTjvE-62" target="zV0pQsdMM4_DKPgCTjvE-23">
          <mxGeometry relative="1" as="geometry" />
        </mxCell>
        <mxCell id="zV0pQsdMM4_DKPgCTjvE-62" value="toggle City" style="shape=hexagon;perimeter=hexagonPerimeter2;whiteSpace=wrap;html=1;fixedSize=1;fontSize=20;" vertex="1" parent="1">
          <mxGeometry x="-430" y="500" width="220" height="80" as="geometry" />
        </mxCell>
        <mxCell id="zV0pQsdMM4_DKPgCTjvE-63" style="edgeStyle=orthogonalEdgeStyle;rounded=0;orthogonalLoop=1;jettySize=auto;html=1;entryX=0.5;entryY=1;entryDx=0;entryDy=0;fontSize=20;strokeWidth=7;strokeColor=#33FF33;" edge="1" parent="1" source="zV0pQsdMM4_DKPgCTjvE-25" target="zV0pQsdMM4_DKPgCTjvE-62">
          <mxGeometry relative="1" as="geometry" />
        </mxCell>
        <mxCell id="zV0pQsdMM4_DKPgCTjvE-68" style="edgeStyle=orthogonalEdgeStyle;rounded=0;orthogonalLoop=1;jettySize=auto;html=1;entryX=0.75;entryY=1;entryDx=0;entryDy=0;fontSize=20;strokeWidth=5;strokeColor=#66FFFF;" edge="1" parent="1" source="zV0pQsdMM4_DKPgCTjvE-66" target="zV0pQsdMM4_DKPgCTjvE-23">
          <mxGeometry relative="1" as="geometry" />
        </mxCell>
        <mxCell id="zV0pQsdMM4_DKPgCTjvE-66" value="Data number &amp;lt;30" style="shape=hexagon;perimeter=hexagonPerimeter2;whiteSpace=wrap;html=1;fixedSize=1;fontSize=20;" vertex="1" parent="1">
          <mxGeometry x="130" y="620" width="220" height="80" as="geometry" />
        </mxCell>
        <mxCell id="zV0pQsdMM4_DKPgCTjvE-77" style="edgeStyle=orthogonalEdgeStyle;rounded=0;orthogonalLoop=1;jettySize=auto;html=1;entryX=0.5;entryY=0;entryDx=0;entryDy=0;fontSize=20;strokeWidth=5;strokeColor=#66FFFF;" edge="1" parent="1" source="zV0pQsdMM4_DKPgCTjvE-91" target="zV0pQsdMM4_DKPgCTjvE-24">
          <mxGeometry relative="1" as="geometry" />
        </mxCell>
        <mxCell id="zV0pQsdMM4_DKPgCTjvE-75" value="MoreData remove" style="shape=hexagon;perimeter=hexagonPerimeter2;whiteSpace=wrap;html=1;fixedSize=1;fontSize=20;" vertex="1" parent="1">
          <mxGeometry x="470" y="230" width="220" height="80" as="geometry" />
        </mxCell>
        <mxCell id="zV0pQsdMM4_DKPgCTjvE-87" style="edgeStyle=orthogonalEdgeStyle;rounded=0;orthogonalLoop=1;jettySize=auto;html=1;entryX=0.5;entryY=0;entryDx=0;entryDy=0;fontSize=20;fillColor=#FF6666;strokeWidth=6;strokeColor=#CC0000;" edge="1" parent="1" source="zV0pQsdMM4_DKPgCTjvE-25" target="zV0pQsdMM4_DKPgCTjvE-27">
          <mxGeometry relative="1" as="geometry" />
        </mxCell>
        <mxCell id="zV0pQsdMM4_DKPgCTjvE-25" value="CityGroup" style="rounded=0;whiteSpace=wrap;html=1;fontSize=20;fillColor=#dae8fc;strokeColor=#6c8ebf;" vertex="1" parent="1">
          <mxGeometry x="-690" y="650" width="140" height="60" as="geometry" />
        </mxCell>
        <mxCell id="zV0pQsdMM4_DKPgCTjvE-27" value="CityBtn" style="rounded=0;whiteSpace=wrap;html=1;fontSize=20;fillColor=#dae8fc;strokeColor=#6c8ebf;" vertex="1" parent="1">
          <mxGeometry x="-690" y="890" width="140" height="60" as="geometry" />
        </mxCell>
        <mxCell id="zV0pQsdMM4_DKPgCTjvE-91" value="" style="shape=image;html=1;verticalAlign=top;verticalLabelPosition=bottom;labelBackgroundColor=#ffffff;imageAspect=0;aspect=fixed;image=https://cdn4.iconfinder.com/data/icons/ionicons/512/icon-close-128.png;fontSize=20;dashed=1;" vertex="1" parent="1">
          <mxGeometry x="510" y="448" width="42" height="42" as="geometry" />
        </mxCell>
        <mxCell id="zV0pQsdMM4_DKPgCTjvE-93" style="edgeStyle=orthogonalEdgeStyle;rounded=0;orthogonalLoop=1;jettySize=auto;html=1;entryX=0.5;entryY=0;entryDx=0;entryDy=0;fontSize=20;strokeWidth=5;strokeColor=#66FFFF;" edge="1" parent="1" source="zV0pQsdMM4_DKPgCTjvE-75" target="zV0pQsdMM4_DKPgCTjvE-91">
          <mxGeometry relative="1" as="geometry">
            <mxPoint x="580" y="330" as="sourcePoint" />
            <mxPoint x="580" y="660" as="targetPoint" />
          </mxGeometry>
        </mxCell>
      </root>
    </mxGraphModel>
  </diagram>
</mxfile>
